<?xml version="1.0" encoding="UTF-8"?>
<svg width="155px" height="184px" viewBox="0 0 155 184" version="1.1" xmlns="http://www.w3.org/2000/svg">
    <title>监控</title>
    <desc>Created with Sketch.</desc>
    <defs>
        <radialGradient cx="51.2372211%" cy="50%" fx="51.2372211%" fy="50%" r="54.7022123%" gradientTransform="translate(0.512372,0.500000),scale(1.000000,0.989800),rotate(88.704009),translate(-0.512372,-0.500000)" id="radialGradient-1">
            <stop stop-color="#141B68" stop-opacity="0" offset="0%"></stop>
            <stop stop-color="#2734DB" stop-opacity="0.065586757" offset="100%"></stop>
        </radialGradient>
        <linearGradient x1="22.1149691%" y1="7.17765097%" x2="50%" y2="100%" id="linearGradient-2">
            <stop stop-color="#33A9F5" stop-opacity="0.668842876" offset="0%"></stop>
            <stop stop-color="#2D04D3" stop-opacity="0.59145542" offset="100%"></stop>
        </linearGradient>
        <radialGradient cx="51.2526668%" cy="50.6757731%" fx="51.2526668%" fy="50.6757731%" r="54.0193009%" gradientTransform="translate(0.512527,0.506758),scale(1.000000,0.989800),rotate(88.704009),translate(-0.512527,-0.506758)" id="radialGradient-3">
            <stop stop-color="#2BD9D7" stop-opacity="0" offset="0%"></stop>
            <stop stop-color="#2BEA8B" stop-opacity="0.581293706" offset="100%"></stop>
        </radialGradient>
        <radialGradient cx="51.2526668%" cy="50.6757731%" fx="51.2526668%" fy="50.6757731%" r="54.0193009%" gradientTransform="translate(0.512527,0.506758),scale(1.000000,0.989800),rotate(88.704009),translate(-0.512527,-0.506758)" id="radialGradient-4">
            <stop stop-color="#2BD9D7" stop-opacity="0" offset="0%"></stop>
            <stop stop-color="#2BEA8B" stop-opacity="0.581293706" offset="100%"></stop>
        </radialGradient>
        <radialGradient cx="51.2526668%" cy="50.6757731%" fx="51.2526668%" fy="50.6757731%" r="54.0193009%" gradientTransform="translate(0.512527,0.506758),scale(1.000000,0.989800),rotate(88.704009),translate(-0.512527,-0.506758)" id="radialGradient-5">
            <stop stop-color="#2BD9D7" stop-opacity="0" offset="0%"></stop>
            <stop stop-color="#2BEA8B" stop-opacity="0.581293706" offset="100%"></stop>
        </radialGradient>
        <linearGradient x1="50%" y1="0%" x2="50%" y2="100%" id="linearGradient-6">
            <stop stop-color="#00BDF4" offset="0%"></stop>
            <stop stop-color="#3BE9CF" offset="100%"></stop>
        </linearGradient>
        <linearGradient x1="50%" y1="45.6683413%" x2="25.231292%" y2="52.4495644%" id="linearGradient-7">
            <stop stop-color="#1D987D" offset="0%"></stop>
            <stop stop-color="#1571D3" offset="100%"></stop>
        </linearGradient>
        <linearGradient x1="47.49768%" y1="41.4406661%" x2="47.2633036%" y2="100%" id="linearGradient-8">
            <stop stop-color="#00C5FA" offset="0%"></stop>
            <stop stop-color="#2373FF" offset="100%"></stop>
        </linearGradient>
        <linearGradient x1="13.8647612%" y1="76.8861508%" x2="128.66984%" y2="28.0645872%" id="linearGradient-9">
            <stop stop-color="#2E8CF5" offset="0%"></stop>
            <stop stop-color="#2FAFF7" offset="100%"></stop>
        </linearGradient>
        <linearGradient x1="50%" y1="0%" x2="50%" y2="100%" id="linearGradient-10">
            <stop stop-color="#0D0360" offset="0%"></stop>
            <stop stop-color="#0690FF" offset="100%"></stop>
        </linearGradient>
        <radialGradient cx="10.974519%" cy="39.2931958%" fx="10.974519%" fy="39.2931958%" r="80.5496059%" gradientTransform="translate(0.109745,0.392932),scale(0.832383,1.000000),rotate(46.891347),translate(-0.109745,-0.392932)" id="radialGradient-11">
            <stop stop-color="#43AEEF" offset="0%"></stop>
            <stop stop-color="#106BB9" offset="100%"></stop>
        </radialGradient>
        <linearGradient x1="23.9256573%" y1="7.43470481%" x2="60.1271979%" y2="107.270294%" id="linearGradient-12">
            <stop stop-color="#1DA0BC" offset="0%"></stop>
            <stop stop-color="#200F71" offset="100%"></stop>
        </linearGradient>
        <linearGradient x1="50%" y1="0%" x2="50%" y2="100%" id="linearGradient-13">
            <stop stop-color="#0062F9" offset="0%"></stop>
            <stop stop-color="#07266D" offset="100%"></stop>
        </linearGradient>
        <linearGradient x1="61.4080577%" y1="6.67960549%" x2="50%" y2="100%" id="linearGradient-14">
            <stop stop-color="#43B4F0" offset="0%"></stop>
            <stop stop-color="#4770E9" offset="100%"></stop>
        </linearGradient>
        <linearGradient x1="50%" y1="0%" x2="50%" y2="100%" id="linearGradient-15">
            <stop stop-color="#67E6FB" offset="0%"></stop>
            <stop stop-color="#060B9E" offset="100%"></stop>
        </linearGradient>
        <linearGradient x1="40.2056105%" y1="6.95587451%" x2="50%" y2="100%" id="linearGradient-16">
            <stop stop-color="#D1ECFA" offset="0%"></stop>
            <stop stop-color="#C8C3FF" offset="100%"></stop>
        </linearGradient>
        <linearGradient x1="50%" y1="0%" x2="56.71224%" y2="100%" id="linearGradient-17">
            <stop stop-color="#67E6FB" offset="0%"></stop>
            <stop stop-color="#060B9E" offset="100%"></stop>
        </linearGradient>
        <linearGradient x1="42.6914079%" y1="6.95587451%" x2="50%" y2="100%" id="linearGradient-18">
            <stop stop-color="#1F3861" offset="0%"></stop>
            <stop stop-color="#02001A" offset="100%"></stop>
        </linearGradient>
        <linearGradient x1="50%" y1="0%" x2="55.0086862%" y2="100%" id="linearGradient-19">
            <stop stop-color="#67E6FB" offset="0%"></stop>
            <stop stop-color="#060B9E" offset="100%"></stop>
        </linearGradient>
        <linearGradient x1="6.49973825%" y1="57.0698218%" x2="76.3348288%" y2="39.3918326%" id="linearGradient-20">
            <stop stop-color="#25B8DD" offset="0%"></stop>
            <stop stop-color="#5AB2FF" offset="100%"></stop>
        </linearGradient>
        <path d="M16.511003,13.5522183 L59.153375,5.72161119 L49.5594174,9.9792939 C46.6574151,11.9678368 44.6826963,13.4237794 43.635261,14.3471218 C37.6619177,19.6127852 34.0700317,24.3653863 31.550756,26.815055 C29.3955371,28.9107258 27.8866462,29.0844265 27.8866462,29.0844265 C26.8682688,29.6638495 24.7434517,30.5413827 21.5121951,31.7170264 C18.6150758,32.8237573 16.2209379,33.8796737 14.3297814,34.8847754 C13.4670759,35.3432814 11.7796352,35.9953271 9.26745912,36.8409125 L9.26745805,36.8409093 C5.60135589,38.0749001 1.62904566,36.1032843 0.395054825,32.4371822 C-0.0566549934,31.0951833 -0.0910003362,29.6477873 0.296548183,28.2858736 L0.296548183,28.2858736 C2.45809926,20.6898026 8.74325521,14.9786442 16.511003,13.5522183 Z" id="path-21"></path>
        <filter x="-8.5%" y="-12.7%" width="116.9%" height="131.6%" filterUnits="objectBoundingBox" id="filter-22">
            <feOffset dx="0" dy="1" in="SourceAlpha" result="shadowOffsetOuter1"></feOffset>
            <feGaussianBlur stdDeviation="1.5" in="shadowOffsetOuter1" result="shadowBlurOuter1"></feGaussianBlur>
            <feColorMatrix values="0 0 0 0 0   0 0 0 0 0   0 0 0 0 0  0 0 0 0.28247924 0" type="matrix" in="shadowBlurOuter1"></feColorMatrix>
        </filter>
        <linearGradient x1="50%" y1="0%" x2="50%" y2="100%" id="linearGradient-23">
            <stop stop-color="#0C448B" offset="0%"></stop>
            <stop stop-color="#1C79BF" offset="100%"></stop>
        </linearGradient>
        <linearGradient x1="48.8097126%" y1="43.3584801%" x2="50%" y2="100%" id="linearGradient-24">
            <stop stop-color="#2ACB87" stop-opacity="0" offset="0%"></stop>
            <stop stop-color="#0ECCE7" offset="100%"></stop>
        </linearGradient>
        <linearGradient x1="50%" y1="0%" x2="50%" y2="74.4378167%" id="linearGradient-25">
            <stop stop-color="#60FDB3" offset="0%"></stop>
            <stop stop-color="#6A85E3" stop-opacity="0" offset="100%"></stop>
        </linearGradient>
    </defs>
    <g id="页面1" stroke="none" stroke-width="1" fill="none" fill-rule="evenodd">
        <g id="大屏复制-5" transform="translate(-91.000000, -336.000000)">
            <g id="编组-11" transform="translate(15.000000, 212.000000)">
                <g id="编组-10">
                    <g id="监控" transform="translate(78.000000, 125.000000)">
                        <g id="编组-18" transform="translate(0.500000, 0.000000)">
                            <g id="编组-14">
                                <ellipse id="椭圆形" stroke="url(#linearGradient-2)" fill="url(#radialGradient-1)" opacity="0.695791" cx="72" cy="72.7419355" rx="72" ry="72.7419355"></ellipse>
                                <ellipse id="椭圆形" fill="url(#radialGradient-3)" opacity="0.0961449033" cx="72" cy="72.7419355" rx="52.6829268" ry="53.2258065"></ellipse>
                                <ellipse id="椭圆形" fill="url(#radialGradient-4)" opacity="0.201543899" cx="72" cy="72.7419355" rx="49.1707317" ry="49.6774194"></ellipse>
                                <ellipse id="椭圆形" fill="url(#radialGradient-5)" opacity="0.352678571" cx="72" cy="72.7419355" rx="37.7560976" ry="38.1451613"></ellipse>
                            </g>
                            <g id="编组-5" transform="translate(54.439024, 112.661290)">
                                <polygon id="矩形" fill="url(#linearGradient-6)" points="0 7.98387097 36 12.7789887 36 52.3387097 0 44.7615953"></polygon>
                                <polygon id="矩形复制-2" fill="url(#linearGradient-7)" points="15.8557495 0 47.4146341 3.5483871 36 13.9557929 0 8.00078309"></polygon>
                                <polygon id="矩形复制" fill="url(#linearGradient-8)" points="36 13.9557929 47.4146341 3.5483871 47.4146341 40.3629032 36 52.3387097"></polygon>
                            </g>
                            <g id="编组-13" transform="translate(50.926829, 53.225806)">
                                <path d="M29.8367431,65.6158374 C29.6867103,65.6351847 29.5337413,65.6451613 29.3784422,65.6451613 L10.9756098,65.6451613 L10.9756098,58.5483871 L26.7804878,58.5483871 L26.7804878,50.5283242 C26.7804878,48.5885923 28.3529511,47.016129 30.2926829,47.016129 C32.2324147,47.016129 33.804878,48.5885923 33.804878,50.5283242 L33.804878,62.1329662 C33.804878,64.072698 32.2324147,65.6451613 30.2926829,65.6451613 C30.1381695,65.6451613 29.9859865,65.6351836 29.8367431,65.6158374 Z" id="形状结合" fill="url(#linearGradient-9)"></path>
                                <g id="编组-12" transform="translate(0.439024, 0.000000)">
                                    <path d="M48.8091402,7.01350158 L72.4929907,2.42144413 L72.1824763,19.1859184 C72.0569627,25.9623128 67.0572125,31.6577874 60.3541857,32.6601375 L60.3541857,32.6601375 C54.8426989,33.4843083 49.7066336,29.6844878 48.8824627,24.173001 C48.8073941,23.6709934 48.770312,23.1640369 48.7715323,22.656449 L48.8091402,7.01350158 Z" id="矩形复制-9" fill="url(#linearGradient-10)" transform="translate(60.632247, 17.596954) rotate(-116.000000) translate(-60.632247, -17.596954) "></path>
                                    <path d="M17.6339512,16.0616757 L49.5767869,9.5159261 L49.5767869,47.240881 L17.9077692,46.4554742 C10.3134987,46.2671326 4.25515947,40.0566808 4.25515947,32.4600752 L4.25515947,32.4600752 C4.25515947,24.5105672 9.84627386,17.6575323 17.6339512,16.0616757 Z" id="矩形" fill="url(#radialGradient-11)"></path>
                                    <path d="M49.6435272,47.4590753 C56.954824,47.4590753 62.8818011,38.965212 62.8818011,28.4875007 C62.8818011,18.0097894 56.954824,9.5159261 49.6435272,9.5159261 C42.3322304,9.5159261 35.4815177,17.9006922 35.4815177,28.3784035 C35.4815177,38.8561149 42.3322304,47.4590753 49.6435272,47.4590753 Z" id="椭圆形复制-2" stroke="url(#linearGradient-13)" fill="url(#linearGradient-12)"></path>
                                    <ellipse id="椭圆形" stroke="url(#linearGradient-15)" fill="url(#linearGradient-14)" cx="52.4803002" cy="28.4875007" rx="13.2382739" ry="18.9715746"></ellipse>
                                    <ellipse id="椭圆形复制-3" stroke="url(#linearGradient-17)" stroke-width="0.4" fill="url(#linearGradient-16)" opacity="0.576753162" cx="53.4258912" cy="28.4875007" rx="9.45590994" ry="13.7543916"></ellipse>
                                    <ellipse id="椭圆形复制-4" stroke="url(#linearGradient-19)" stroke-width="0.4" fill="url(#linearGradient-18)" cx="54.3714822" cy="28.250356" rx="6.61913696" ry="11.1458001"></ellipse>
                                    <g id="矩形复制-7">
                                        <use fill="black" fill-opacity="1" filter="url(#filter-22)" xlink:href="#path-21"></use>
                                        <use fill="url(#linearGradient-20)" fill-rule="evenodd" xlink:href="#path-21"></use>
                                    </g>
                                    <ellipse id="椭圆形复制-11" fill="#FFFFFF" opacity="0.396530878" cx="51.0619137" cy="22.5588836" rx="2.36397749" ry="2.13430214"></ellipse>
                                    <ellipse id="椭圆形复制-12" fill="#FFFFFF" opacity="0.396530878" cx="57.6810507" cy="36.5504199" rx="1" ry="1"></ellipse>
                                </g>
                                <path d="M22.8292683,46.1290323 L37.7560976,46.5171921 L37.7560976,46.5171921 C37.7560976,48.2625374 36.3412156,49.6774194 34.5958703,49.6774194 L26.3776554,49.6774194 C24.4179353,49.6774194 22.8292683,48.0887523 22.8292683,46.1290323 L22.8292683,46.1290323 Z" id="矩形" fill="url(#linearGradient-23)"></path>
                            </g>
                        </g>
                        <polygon id="矩形" fill="url(#linearGradient-24)" opacity="0.541922433" points="108.937666 80.6214712 152.5 50 152.5 138.467656 108.5 183"></polygon>
                        <polygon id="矩形复制-20" fill="url(#linearGradient-25)" opacity="0.285714286" transform="translate(53.500000, 121.000000) scale(1, -1) translate(-53.500000, -121.000000) " points="-1.11931645 80.2571429 108.051572 59 109 178.81319 -2 183"></polygon>
                    </g>
                </g>
            </g>
        </g>
    </g>
</svg>